<svg width="245" height="161" viewBox="0 0 245 161" fill="none" xmlns="http://www.w3.org/2000/svg">
<g clip-path="url(#clip0_1_91)">
<path d="M245 0H0V161H245V0Z" fill="white"/>
<path d="M245 0H0V161H245V0Z" fill="#332E2F"/>
<g clip-path="url(#clip1_1_91)">
<path d="M103.673 18.9754C103.673 12.2224 97.2271 6.74807 89.2757 6.74807C81.3244 6.74807 74.8785 12.2224 74.8785 18.9754V71.6467C74.8785 78.3997 81.3244 83.874 89.2757 83.874C97.2271 83.874 103.673 78.3997 103.673 71.6467V18.9754Z" fill="#FF7F2A"/>
<path d="M57.1589 80.1118L77.0935 65.0628H101.458V81.9929L83.7383 102.685H57.1589V80.1118Z" fill="#FFCC00"/>
<path d="M89.2757 93.2797C99.6736 93.2797 108.103 86.1209 108.103 77.2902C108.103 68.4594 99.6736 61.3006 89.2757 61.3006C78.8778 61.3006 70.4486 68.4594 70.4486 77.2902C70.4486 86.1209 78.8778 93.2797 89.2757 93.2797Z" fill="#FFCC00"/>
<path d="M89.2757 84.3444C93.863 84.3444 97.5818 81.1861 97.5818 77.2902C97.5818 73.3942 93.863 70.236 89.2757 70.236C84.6884 70.236 80.9696 73.3942 80.9696 77.2902C80.9696 81.1861 84.6884 84.3444 89.2757 84.3444Z" fill="#FFFF00"/>
<path d="M89.2757 88.1066C96.3096 88.1066 102.012 83.2639 102.012 77.2902C102.012 71.3164 96.3096 66.4737 89.2757 66.4737C82.2418 66.4737 76.5397 71.3164 76.5397 77.2902C76.5397 83.2639 82.2418 88.1066 89.2757 88.1066Z" stroke="#0000FF" stroke-width="0.999997" stroke-linecap="round"/>
<path d="M172.081 61.1048L165.854 68.883L193.33 84.7476L199.557 76.9695L172.081 61.1048Z" fill="#999999"/>
<path d="M170.836 62.6604L169.59 64.2161L197.066 80.0807L198.311 78.5251L170.836 62.6604Z" fill="#CCCCCC"/>
<path d="M97.3833 8.87469C90.8077 5.0779 81.8531 6.52713 77.3825 12.1116C72.9119 17.6961 74.6184 25.3012 81.1939 29.098L158.126 73.519C164.701 77.3158 173.656 75.8666 178.126 70.2821C182.597 64.6976 180.891 57.0925 174.315 53.2957L97.3833 8.87469Z" fill="#FFD42A"/>
<path d="M89.2757 24.1483C92.6398 24.1483 95.3668 21.8323 95.3668 18.9752C95.3668 16.1182 92.6398 13.8022 89.2757 13.8022C85.9117 13.8022 83.1846 16.1182 83.1846 18.9752C83.1846 21.8323 85.9117 24.1483 89.2757 24.1483Z" fill="#FFFF00"/>
<path d="M89.2757 26.9699C94.4747 26.9699 98.6893 23.3906 98.6893 18.9752C98.6893 14.5599 94.4747 10.9806 89.2757 10.9806C84.0767 10.9806 79.8622 14.5599 79.8622 18.9752C79.8622 23.3906 84.0767 26.9699 89.2757 26.9699Z" stroke="#0000FF" stroke-linecap="round"/>
<path d="M207.807 73.0965L192.835 69.6737L186.501 89.6547L201.473 93.0775L207.807 73.0965Z" fill="#D4AA00"/>
<path d="M205.668 72.6075L197.112 70.6516L190.779 90.6327L199.335 92.5886L205.668 72.6075Z" fill="#FFCC00"/>
<path d="M203.529 72.1185L201.39 71.6296L195.057 91.6106L197.196 92.0996L203.529 72.1185Z" fill="#FFDD55"/>
<path d="M213.236 70.4415L189.708 65.0628L188.557 68.6957L212.084 74.0744L213.236 70.4415Z" fill="#0000FF"/>
<path d="M197.196 92.0996L190.779 90.6327L189.628 94.2656L196.044 95.7325L197.196 92.0996Z" fill="#0000FF"/>
<path d="M193.905 95.2435L191.766 94.7546L189.463 102.02L191.602 102.509L193.905 95.2435Z" fill="#808080"/>
<path d="M125.822 138.427H4V155.357H125.822V138.427Z" fill="#FF7F2A"/>
<path d="M8.4299 138.427H92.5981V127.14H33.9019L26.1495 114.913H8.4299V138.427Z" fill="#FFCC00"/>
<path d="M75.986 119.615H40.5467V127.14H75.986V119.615Z" fill="#0000FF"/>
<path d="M82.6308 108.329H33.9019V119.615H82.6308V108.329Z" fill="#FF7F2A"/>
<path d="M78.201 108.329H38.3318V119.615H78.201V108.329Z" fill="#FF6600"/>
<path d="M73.771 108.329H42.7617V119.615H73.771V108.329Z" fill="#FF7F2A"/>
<path d="M69.3411 108.329H47.1916V119.615H69.3411V108.329Z" fill="#FF6600"/>
<path d="M64.9112 108.329H51.6215V119.615H64.9112V108.329Z" fill="#FF7F2A"/>
<path d="M60.4813 108.329H56.0514V119.615H60.4813V108.329Z" fill="#FF6600"/>
<path d="M72.6635 80.1118H43.8691V108.329H72.6635V80.1118Z" fill="#FF7F2A"/>
<path d="M28.3645 81.9929H22.8271V102.685H28.3645V81.9929Z" fill="#0000FF"/>
<path d="M43.8692 85.7552H28.3645V98.923H43.8692V85.7552Z" fill="#FF7F2A"/>
<path d="M43.8692 87.6363H28.3645V95.1608H43.8692V87.6363Z" fill="#FF9955"/>
<path d="M43.8692 89.5174H28.3645V91.3985H43.8692V89.5174Z" fill="#FFB380"/>
<path d="M161.262 120.556C161.262 118.998 159.278 117.734 156.832 117.734C154.385 117.734 152.402 118.998 152.402 120.556C152.402 122.114 154.385 123.378 156.832 123.378C159.278 123.378 161.262 122.114 161.262 120.556Z" fill="#4D4D4D"/>
<path d="M163.477 120.556C163.477 118.998 161.493 117.734 159.047 117.734C156.6 117.734 154.617 118.998 154.617 120.556C154.617 122.114 156.6 123.378 159.047 123.378C161.493 123.378 163.477 122.114 163.477 120.556Z" fill="#999999"/>
<path d="M165.692 120.556C165.692 118.998 163.708 117.734 161.262 117.734C158.815 117.734 156.832 118.998 156.832 120.556C156.832 122.114 158.815 123.378 161.262 123.378C163.708 123.378 165.692 122.114 165.692 120.556Z" fill="#4D4D4D"/>
<path d="M167.907 120.556C167.907 118.998 165.923 117.734 163.477 117.734C161.03 117.734 159.047 118.998 159.047 120.556C159.047 122.114 161.03 123.378 163.477 123.378C165.923 123.378 167.907 122.114 167.907 120.556Z" fill="#999999"/>
<path d="M170.122 120.556C170.122 118.998 168.138 117.734 165.692 117.734C163.245 117.734 161.262 118.998 161.262 120.556C161.262 122.114 163.245 123.378 165.692 123.378C168.138 123.378 170.122 122.114 170.122 120.556Z" fill="#4D4D4D"/>
<path d="M172.336 120.556C172.336 118.998 170.353 117.734 167.907 117.734C165.46 117.734 163.477 118.998 163.477 120.556C163.477 122.114 165.46 123.378 167.907 123.378C170.353 123.378 172.336 122.114 172.336 120.556Z" fill="#999999"/>
<path d="M174.551 120.556C174.551 118.998 172.568 117.734 170.121 117.734C167.675 117.734 165.692 118.998 165.692 120.556C165.692 122.114 167.675 123.378 170.121 123.378C172.568 123.378 174.551 122.114 174.551 120.556Z" fill="#4D4D4D"/>
<path d="M176.766 120.556C176.766 118.998 174.783 117.734 172.336 117.734C169.89 117.734 167.907 118.998 167.907 120.556C167.907 122.114 169.89 123.378 172.336 123.378C174.783 123.378 176.766 122.114 176.766 120.556Z" fill="#999999"/>
<path d="M178.981 120.556C178.981 118.998 176.998 117.734 174.551 117.734C172.105 117.734 170.121 118.998 170.121 120.556C170.121 122.114 172.105 123.378 174.551 123.378C176.998 123.378 178.981 122.114 178.981 120.556Z" fill="#4D4D4D"/>
<path d="M181.196 120.556C181.196 118.998 179.213 117.734 176.766 117.734C174.32 117.734 172.336 118.998 172.336 120.556C172.336 122.114 174.32 123.378 176.766 123.378C179.213 123.378 181.196 122.114 181.196 120.556Z" fill="#999999"/>
<path d="M183.411 120.556C183.411 118.998 181.428 117.734 178.981 117.734C176.535 117.734 174.551 118.998 174.551 120.556C174.551 122.114 176.535 123.378 178.981 123.378C181.428 123.378 183.411 122.114 183.411 120.556Z" fill="#4D4D4D"/>
<path d="M185.626 120.556C185.626 118.998 183.643 117.734 181.196 117.734C178.75 117.734 176.766 118.998 176.766 120.556C176.766 122.114 178.75 123.378 181.196 123.378C183.643 123.378 185.626 122.114 185.626 120.556Z" fill="#999999"/>
<path d="M187.841 120.556C187.841 118.998 185.858 117.734 183.411 117.734C180.965 117.734 178.981 118.998 178.981 120.556C178.981 122.114 180.965 123.378 183.411 123.378C185.858 123.378 187.841 122.114 187.841 120.556Z" fill="#4D4D4D"/>
<path d="M190.056 120.556C190.056 118.998 188.073 117.734 185.626 117.734C183.18 117.734 181.196 118.998 181.196 120.556C181.196 122.114 183.18 123.378 185.626 123.378C188.073 123.378 190.056 122.114 190.056 120.556Z" fill="#999999"/>
<path d="M192.271 120.556C192.271 118.998 190.288 117.734 187.841 117.734C185.395 117.734 183.411 118.998 183.411 120.556C183.411 122.114 185.395 123.378 187.841 123.378C190.288 123.378 192.271 122.114 192.271 120.556Z" fill="#4D4D4D"/>
<path d="M194.486 120.556C194.486 118.998 192.503 117.734 190.056 117.734C187.609 117.734 185.626 118.998 185.626 120.556C185.626 122.114 187.609 123.378 190.056 123.378C192.503 123.378 194.486 122.114 194.486 120.556Z" fill="#999999"/>
<path d="M196.701 120.556C196.701 118.998 194.718 117.734 192.271 117.734C189.824 117.734 187.841 118.998 187.841 120.556C187.841 122.114 189.824 123.378 192.271 123.378C194.718 123.378 196.701 122.114 196.701 120.556Z" fill="#4D4D4D"/>
<path d="M198.916 120.556C198.916 118.998 196.933 117.734 194.486 117.734C192.039 117.734 190.056 118.998 190.056 120.556C190.056 122.114 192.039 123.378 194.486 123.378C196.933 123.378 198.916 122.114 198.916 120.556Z" fill="#999999"/>
<path d="M201.131 120.556C201.131 118.998 199.147 117.734 196.701 117.734C194.254 117.734 192.271 118.998 192.271 120.556C192.271 122.114 194.254 123.378 196.701 123.378C199.147 123.378 201.131 122.114 201.131 120.556Z" fill="#4D4D4D"/>
<path d="M203.346 120.556C203.346 118.998 201.362 117.734 198.916 117.734C196.469 117.734 194.486 118.998 194.486 120.556C194.486 122.114 196.469 123.378 198.916 123.378C201.362 123.378 203.346 122.114 203.346 120.556Z" fill="#999999"/>
<path d="M205.561 120.556C205.561 118.998 203.577 117.734 201.131 117.734C198.684 117.734 196.701 118.998 196.701 120.556C196.701 122.114 198.684 123.378 201.131 123.378C203.577 123.378 205.561 122.114 205.561 120.556Z" fill="#4D4D4D"/>
<path d="M207.776 120.556C207.776 118.998 205.792 117.734 203.346 117.734C200.899 117.734 198.916 118.998 198.916 120.556C198.916 122.114 200.899 123.378 203.346 123.378C205.792 123.378 207.776 122.114 207.776 120.556Z" fill="#999999"/>
<path d="M209.991 120.556C209.991 118.998 208.007 117.734 205.561 117.734C203.114 117.734 201.131 118.998 201.131 120.556C201.131 122.114 203.114 123.378 205.561 123.378C208.007 123.378 209.991 122.114 209.991 120.556Z" fill="#4D4D4D"/>
<path d="M212.206 120.556C212.206 118.998 210.222 117.734 207.776 117.734C205.329 117.734 203.346 118.998 203.346 120.556C203.346 122.114 205.329 123.378 207.776 123.378C210.222 123.378 212.206 122.114 212.206 120.556Z" fill="#999999"/>
<path d="M214.421 120.556C214.421 118.998 212.437 117.734 209.991 117.734C207.544 117.734 205.561 118.998 205.561 120.556C205.561 122.114 207.544 123.378 209.991 123.378C212.437 123.378 214.421 122.114 214.421 120.556Z" fill="#4D4D4D"/>
<path d="M216.636 120.556C216.636 118.998 214.652 117.734 212.206 117.734C209.759 117.734 207.776 118.998 207.776 120.556C207.776 122.114 209.759 123.378 212.206 123.378C214.652 123.378 216.636 122.114 216.636 120.556Z" fill="#999999"/>
<path d="M161.262 116.794C161.262 115.235 159.278 113.972 156.832 113.972C154.385 113.972 152.402 115.235 152.402 116.794C152.402 118.352 154.385 119.615 156.832 119.615C159.278 119.615 161.262 118.352 161.262 116.794Z" fill="#4D4D4D"/>
<path d="M163.477 116.794C163.477 115.235 161.493 113.972 159.047 113.972C156.6 113.972 154.617 115.235 154.617 116.794C154.617 118.352 156.6 119.615 159.047 119.615C161.493 119.615 163.477 118.352 163.477 116.794Z" fill="#999999"/>
<path d="M165.692 116.794C165.692 115.235 163.708 113.972 161.262 113.972C158.815 113.972 156.832 115.235 156.832 116.794C156.832 118.352 158.815 119.615 161.262 119.615C163.708 119.615 165.692 118.352 165.692 116.794Z" fill="#4D4D4D"/>
<path d="M167.907 116.794C167.907 115.235 165.923 113.972 163.477 113.972C161.03 113.972 159.047 115.235 159.047 116.794C159.047 118.352 161.03 119.615 163.477 119.615C165.923 119.615 167.907 118.352 167.907 116.794Z" fill="#999999"/>
<path d="M170.122 116.794C170.122 115.235 168.138 113.972 165.692 113.972C163.245 113.972 161.262 115.235 161.262 116.794C161.262 118.352 163.245 119.615 165.692 119.615C168.138 119.615 170.122 118.352 170.122 116.794Z" fill="#4D4D4D"/>
<path d="M172.336 116.794C172.336 115.235 170.353 113.972 167.907 113.972C165.46 113.972 163.477 115.235 163.477 116.794C163.477 118.352 165.46 119.615 167.907 119.615C170.353 119.615 172.336 118.352 172.336 116.794Z" fill="#999999"/>
<path d="M174.551 116.794C174.551 115.235 172.568 113.972 170.121 113.972C167.675 113.972 165.692 115.235 165.692 116.794C165.692 118.352 167.675 119.615 170.121 119.615C172.568 119.615 174.551 118.352 174.551 116.794Z" fill="#4D4D4D"/>
<path d="M176.766 116.794C176.766 115.235 174.783 113.972 172.336 113.972C169.89 113.972 167.907 115.235 167.907 116.794C167.907 118.352 169.89 119.615 172.336 119.615C174.783 119.615 176.766 118.352 176.766 116.794Z" fill="#999999"/>
<path d="M178.981 116.794C178.981 115.235 176.998 113.972 174.551 113.972C172.105 113.972 170.121 115.235 170.121 116.794C170.121 118.352 172.105 119.615 174.551 119.615C176.998 119.615 178.981 118.352 178.981 116.794Z" fill="#4D4D4D"/>
<path d="M181.196 116.794C181.196 115.235 179.213 113.972 176.766 113.972C174.32 113.972 172.336 115.235 172.336 116.794C172.336 118.352 174.32 119.615 176.766 119.615C179.213 119.615 181.196 118.352 181.196 116.794Z" fill="#999999"/>
<path d="M183.411 116.794C183.411 115.235 181.428 113.972 178.981 113.972C176.535 113.972 174.551 115.235 174.551 116.794C174.551 118.352 176.535 119.615 178.981 119.615C181.428 119.615 183.411 118.352 183.411 116.794Z" fill="#4D4D4D"/>
<path d="M185.626 116.794C185.626 115.235 183.643 113.972 181.196 113.972C178.75 113.972 176.766 115.235 176.766 116.794C176.766 118.352 178.75 119.615 181.196 119.615C183.643 119.615 185.626 118.352 185.626 116.794Z" fill="#999999"/>
<path d="M187.841 116.794C187.841 115.235 185.858 113.972 183.411 113.972C180.965 113.972 178.981 115.235 178.981 116.794C178.981 118.352 180.965 119.615 183.411 119.615C185.858 119.615 187.841 118.352 187.841 116.794Z" fill="#4D4D4D"/>
<path d="M190.056 116.794C190.056 115.235 188.073 113.972 185.626 113.972C183.18 113.972 181.196 115.235 181.196 116.794C181.196 118.352 183.18 119.615 185.626 119.615C188.073 119.615 190.056 118.352 190.056 116.794Z" fill="#999999"/>
<path d="M192.271 116.794C192.271 115.235 190.288 113.972 187.841 113.972C185.395 113.972 183.411 115.235 183.411 116.794C183.411 118.352 185.395 119.615 187.841 119.615C190.288 119.615 192.271 118.352 192.271 116.794Z" fill="#4D4D4D"/>
<path d="M194.486 116.794C194.486 115.235 192.503 113.972 190.056 113.972C187.609 113.972 185.626 115.235 185.626 116.794C185.626 118.352 187.609 119.615 190.056 119.615C192.503 119.615 194.486 118.352 194.486 116.794Z" fill="#999999"/>
<path d="M196.701 116.794C196.701 115.235 194.718 113.972 192.271 113.972C189.824 113.972 187.841 115.235 187.841 116.794C187.841 118.352 189.824 119.615 192.271 119.615C194.718 119.615 196.701 118.352 196.701 116.794Z" fill="#4D4D4D"/>
<path d="M198.916 116.794C198.916 115.235 196.933 113.972 194.486 113.972C192.039 113.972 190.056 115.235 190.056 116.794C190.056 118.352 192.039 119.615 194.486 119.615C196.933 119.615 198.916 118.352 198.916 116.794Z" fill="#999999"/>
<path d="M201.131 116.794C201.131 115.235 199.147 113.972 196.701 113.972C194.254 113.972 192.271 115.235 192.271 116.794C192.271 118.352 194.254 119.615 196.701 119.615C199.147 119.615 201.131 118.352 201.131 116.794Z" fill="#4D4D4D"/>
<path d="M203.346 116.794C203.346 115.235 201.362 113.972 198.916 113.972C196.469 113.972 194.486 115.235 194.486 116.794C194.486 118.352 196.469 119.615 198.916 119.615C201.362 119.615 203.346 118.352 203.346 116.794Z" fill="#999999"/>
<path d="M205.561 116.794C205.561 115.235 203.577 113.972 201.131 113.972C198.684 113.972 196.701 115.235 196.701 116.794C196.701 118.352 198.684 119.615 201.131 119.615C203.577 119.615 205.561 118.352 205.561 116.794Z" fill="#4D4D4D"/>
<path d="M207.776 116.794C207.776 115.235 205.792 113.972 203.346 113.972C200.899 113.972 198.916 115.235 198.916 116.794C198.916 118.352 200.899 119.615 203.346 119.615C205.792 119.615 207.776 118.352 207.776 116.794Z" fill="#999999"/>
<path d="M209.991 116.794C209.991 115.235 208.007 113.972 205.561 113.972C203.114 113.972 201.131 115.235 201.131 116.794C201.131 118.352 203.114 119.615 205.561 119.615C208.007 119.615 209.991 118.352 209.991 116.794Z" fill="#4D4D4D"/>
<path d="M212.206 116.794C212.206 115.235 210.222 113.972 207.776 113.972C205.329 113.972 203.346 115.235 203.346 116.794C203.346 118.352 205.329 119.615 207.776 119.615C210.222 119.615 212.206 118.352 212.206 116.794Z" fill="#999999"/>
<path d="M214.421 116.794C214.421 115.235 212.437 113.972 209.991 113.972C207.544 113.972 205.561 115.235 205.561 116.794C205.561 118.352 207.544 119.615 209.991 119.615C212.437 119.615 214.421 118.352 214.421 116.794Z" fill="#4D4D4D"/>
<path d="M216.636 116.794C216.636 115.235 214.652 113.972 212.206 113.972C209.759 113.972 207.776 115.235 207.776 116.794C207.776 118.352 209.759 119.615 212.206 119.615C214.652 119.615 216.636 118.352 216.636 116.794Z" fill="#999999"/>
<path d="M161.262 113.031C161.262 111.473 159.278 110.21 156.832 110.21C154.385 110.21 152.402 111.473 152.402 113.031C152.402 114.59 154.385 115.853 156.832 115.853C159.278 115.853 161.262 114.59 161.262 113.031Z" fill="#4D4D4D"/>
<path d="M163.477 113.031C163.477 111.473 161.493 110.21 159.047 110.21C156.6 110.21 154.617 111.473 154.617 113.031C154.617 114.59 156.6 115.853 159.047 115.853C161.493 115.853 163.477 114.59 163.477 113.031Z" fill="#999999"/>
<path d="M165.692 113.031C165.692 111.473 163.708 110.21 161.262 110.21C158.815 110.21 156.832 111.473 156.832 113.031C156.832 114.59 158.815 115.853 161.262 115.853C163.708 115.853 165.692 114.59 165.692 113.031Z" fill="#4D4D4D"/>
<path d="M167.907 113.031C167.907 111.473 165.923 110.21 163.477 110.21C161.03 110.21 159.047 111.473 159.047 113.031C159.047 114.59 161.03 115.853 163.477 115.853C165.923 115.853 167.907 114.59 167.907 113.031Z" fill="#999999"/>
<path d="M170.122 113.031C170.122 111.473 168.138 110.21 165.692 110.21C163.245 110.21 161.262 111.473 161.262 113.031C161.262 114.59 163.245 115.853 165.692 115.853C168.138 115.853 170.122 114.59 170.122 113.031Z" fill="#4D4D4D"/>
<path d="M172.336 113.031C172.336 111.473 170.353 110.21 167.907 110.21C165.46 110.21 163.477 111.473 163.477 113.031C163.477 114.59 165.46 115.853 167.907 115.853C170.353 115.853 172.336 114.59 172.336 113.031Z" fill="#999999"/>
<path d="M174.551 113.031C174.551 111.473 172.568 110.21 170.121 110.21C167.675 110.21 165.692 111.473 165.692 113.031C165.692 114.59 167.675 115.853 170.121 115.853C172.568 115.853 174.551 114.59 174.551 113.031Z" fill="#4D4D4D"/>
<path d="M176.766 113.031C176.766 111.473 174.783 110.21 172.336 110.21C169.89 110.21 167.907 111.473 167.907 113.031C167.907 114.59 169.89 115.853 172.336 115.853C174.783 115.853 176.766 114.59 176.766 113.031Z" fill="#999999"/>
<path d="M178.981 113.031C178.981 111.473 176.998 110.21 174.551 110.21C172.105 110.21 170.121 111.473 170.121 113.031C170.121 114.59 172.105 115.853 174.551 115.853C176.998 115.853 178.981 114.59 178.981 113.031Z" fill="#4D4D4D"/>
<path d="M181.196 113.031C181.196 111.473 179.213 110.21 176.766 110.21C174.32 110.21 172.336 111.473 172.336 113.031C172.336 114.59 174.32 115.853 176.766 115.853C179.213 115.853 181.196 114.59 181.196 113.031Z" fill="#999999"/>
<path d="M183.411 113.031C183.411 111.473 181.428 110.21 178.981 110.21C176.535 110.21 174.551 111.473 174.551 113.031C174.551 114.59 176.535 115.853 178.981 115.853C181.428 115.853 183.411 114.59 183.411 113.031Z" fill="#4D4D4D"/>
<path d="M185.626 113.031C185.626 111.473 183.643 110.21 181.196 110.21C178.75 110.21 176.766 111.473 176.766 113.031C176.766 114.59 178.75 115.853 181.196 115.853C183.643 115.853 185.626 114.59 185.626 113.031Z" fill="#999999"/>
<path d="M187.841 113.031C187.841 111.473 185.858 110.21 183.411 110.21C180.965 110.21 178.981 111.473 178.981 113.031C178.981 114.59 180.965 115.853 183.411 115.853C185.858 115.853 187.841 114.59 187.841 113.031Z" fill="#4D4D4D"/>
<path d="M190.056 113.031C190.056 111.473 188.073 110.21 185.626 110.21C183.18 110.21 181.196 111.473 181.196 113.031C181.196 114.59 183.18 115.853 185.626 115.853C188.073 115.853 190.056 114.59 190.056 113.031Z" fill="#999999"/>
<path d="M192.271 113.031C192.271 111.473 190.288 110.21 187.841 110.21C185.395 110.21 183.411 111.473 183.411 113.031C183.411 114.59 185.395 115.853 187.841 115.853C190.288 115.853 192.271 114.59 192.271 113.031Z" fill="#4D4D4D"/>
<path d="M194.486 113.031C194.486 111.473 192.503 110.21 190.056 110.21C187.609 110.21 185.626 111.473 185.626 113.031C185.626 114.59 187.609 115.853 190.056 115.853C192.503 115.853 194.486 114.59 194.486 113.031Z" fill="#999999"/>
<path d="M196.701 113.031C196.701 111.473 194.718 110.21 192.271 110.21C189.824 110.21 187.841 111.473 187.841 113.031C187.841 114.59 189.824 115.853 192.271 115.853C194.718 115.853 196.701 114.59 196.701 113.031Z" fill="#4D4D4D"/>
<path d="M198.916 113.031C198.916 111.473 196.933 110.21 194.486 110.21C192.039 110.21 190.056 111.473 190.056 113.031C190.056 114.59 192.039 115.853 194.486 115.853C196.933 115.853 198.916 114.59 198.916 113.031Z" fill="#999999"/>
<path d="M201.131 113.031C201.131 111.473 199.147 110.21 196.701 110.21C194.254 110.21 192.271 111.473 192.271 113.031C192.271 114.59 194.254 115.853 196.701 115.853C199.147 115.853 201.131 114.59 201.131 113.031Z" fill="#4D4D4D"/>
<path d="M203.346 113.031C203.346 111.473 201.362 110.21 198.916 110.21C196.469 110.21 194.486 111.473 194.486 113.031C194.486 114.59 196.469 115.853 198.916 115.853C201.362 115.853 203.346 114.59 203.346 113.031Z" fill="#999999"/>
<path d="M205.561 113.031C205.561 111.473 203.577 110.21 201.131 110.21C198.684 110.21 196.701 111.473 196.701 113.031C196.701 114.59 198.684 115.853 201.131 115.853C203.577 115.853 205.561 114.59 205.561 113.031Z" fill="#4D4D4D"/>
<path d="M207.776 113.031C207.776 111.473 205.792 110.21 203.346 110.21C200.899 110.21 198.916 111.473 198.916 113.031C198.916 114.59 200.899 115.853 203.346 115.853C205.792 115.853 207.776 114.59 207.776 113.031Z" fill="#999999"/>
<path d="M209.991 113.031C209.991 111.473 208.007 110.21 205.561 110.21C203.114 110.21 201.131 111.473 201.131 113.031C201.131 114.59 203.114 115.853 205.561 115.853C208.007 115.853 209.991 114.59 209.991 113.031Z" fill="#4D4D4D"/>
<path d="M212.206 113.031C212.206 111.473 210.222 110.21 207.776 110.21C205.329 110.21 203.346 111.473 203.346 113.031C203.346 114.59 205.329 115.853 207.776 115.853C210.222 115.853 212.206 114.59 212.206 113.031Z" fill="#999999"/>
<path d="M214.421 113.031C214.421 111.473 212.437 110.21 209.991 110.21C207.544 110.21 205.561 111.473 205.561 113.031C205.561 114.59 207.544 115.853 209.991 115.853C212.437 115.853 214.421 114.59 214.421 113.031Z" fill="#4D4D4D"/>
<path d="M216.636 113.031C216.636 111.473 214.652 110.21 212.206 110.21C209.759 110.21 207.776 111.473 207.776 113.031C207.776 114.59 209.759 115.853 212.206 115.853C214.652 115.853 216.636 114.59 216.636 113.031Z" fill="#999999"/>
<path d="M161.262 109.269C161.262 107.711 159.278 106.447 156.832 106.447C154.385 106.447 152.402 107.711 152.402 109.269C152.402 110.828 154.385 112.091 156.832 112.091C159.278 112.091 161.262 110.828 161.262 109.269Z" fill="#4D4D4D"/>
<path d="M163.477 109.269C163.477 107.711 161.493 106.447 159.047 106.447C156.6 106.447 154.617 107.711 154.617 109.269C154.617 110.828 156.6 112.091 159.047 112.091C161.493 112.091 163.477 110.828 163.477 109.269Z" fill="#999999"/>
<path d="M165.692 109.269C165.692 107.711 163.708 106.447 161.262 106.447C158.815 106.447 156.832 107.711 156.832 109.269C156.832 110.828 158.815 112.091 161.262 112.091C163.708 112.091 165.692 110.828 165.692 109.269Z" fill="#4D4D4D"/>
<path d="M167.907 109.269C167.907 107.711 165.923 106.447 163.477 106.447C161.03 106.447 159.047 107.711 159.047 109.269C159.047 110.828 161.03 112.091 163.477 112.091C165.923 112.091 167.907 110.828 167.907 109.269Z" fill="#999999"/>
<path d="M170.122 109.269C170.122 107.711 168.138 106.447 165.692 106.447C163.245 106.447 161.262 107.711 161.262 109.269C161.262 110.828 163.245 112.091 165.692 112.091C168.138 112.091 170.122 110.828 170.122 109.269Z" fill="#4D4D4D"/>
<path d="M172.336 109.269C172.336 107.711 170.353 106.447 167.907 106.447C165.46 106.447 163.477 107.711 163.477 109.269C163.477 110.828 165.46 112.091 167.907 112.091C170.353 112.091 172.336 110.828 172.336 109.269Z" fill="#999999"/>
<path d="M174.551 109.269C174.551 107.711 172.568 106.447 170.121 106.447C167.675 106.447 165.692 107.711 165.692 109.269C165.692 110.828 167.675 112.091 170.121 112.091C172.568 112.091 174.551 110.828 174.551 109.269Z" fill="#4D4D4D"/>
<path d="M176.766 109.269C176.766 107.711 174.783 106.447 172.336 106.447C169.89 106.447 167.907 107.711 167.907 109.269C167.907 110.828 169.89 112.091 172.336 112.091C174.783 112.091 176.766 110.828 176.766 109.269Z" fill="#999999"/>
<path d="M178.981 109.269C178.981 107.711 176.998 106.447 174.551 106.447C172.105 106.447 170.121 107.711 170.121 109.269C170.121 110.828 172.105 112.091 174.551 112.091C176.998 112.091 178.981 110.828 178.981 109.269Z" fill="#4D4D4D"/>
<path d="M181.196 109.269C181.196 107.711 179.213 106.447 176.766 106.447C174.32 106.447 172.336 107.711 172.336 109.269C172.336 110.828 174.32 112.091 176.766 112.091C179.213 112.091 181.196 110.828 181.196 109.269Z" fill="#999999"/>
<path d="M183.411 109.269C183.411 107.711 181.428 106.447 178.981 106.447C176.535 106.447 174.551 107.711 174.551 109.269C174.551 110.828 176.535 112.091 178.981 112.091C181.428 112.091 183.411 110.828 183.411 109.269Z" fill="#4D4D4D"/>
<path d="M185.626 109.269C185.626 107.711 183.643 106.447 181.196 106.447C178.75 106.447 176.766 107.711 176.766 109.269C176.766 110.828 178.75 112.091 181.196 112.091C183.643 112.091 185.626 110.828 185.626 109.269Z" fill="#999999"/>
<path d="M187.841 109.269C187.841 107.711 185.858 106.447 183.411 106.447C180.965 106.447 178.981 107.711 178.981 109.269C178.981 110.828 180.965 112.091 183.411 112.091C185.858 112.091 187.841 110.828 187.841 109.269Z" fill="#4D4D4D"/>
<path d="M190.056 109.269C190.056 107.711 188.073 106.447 185.626 106.447C183.18 106.447 181.196 107.711 181.196 109.269C181.196 110.828 183.18 112.091 185.626 112.091C188.073 112.091 190.056 110.828 190.056 109.269Z" fill="#999999"/>
<path d="M192.271 109.269C192.271 107.711 190.288 106.447 187.841 106.447C185.395 106.447 183.411 107.711 183.411 109.269C183.411 110.828 185.395 112.091 187.841 112.091C190.288 112.091 192.271 110.828 192.271 109.269Z" fill="#4D4D4D"/>
<path d="M194.486 109.269C194.486 107.711 192.503 106.447 190.056 106.447C187.609 106.447 185.626 107.711 185.626 109.269C185.626 110.828 187.609 112.091 190.056 112.091C192.503 112.091 194.486 110.828 194.486 109.269Z" fill="#999999"/>
<path d="M196.701 109.269C196.701 107.711 194.718 106.447 192.271 106.447C189.824 106.447 187.841 107.711 187.841 109.269C187.841 110.828 189.824 112.091 192.271 112.091C194.718 112.091 196.701 110.828 196.701 109.269Z" fill="#4D4D4D"/>
<path d="M198.916 109.269C198.916 107.711 196.933 106.447 194.486 106.447C192.039 106.447 190.056 107.711 190.056 109.269C190.056 110.828 192.039 112.091 194.486 112.091C196.933 112.091 198.916 110.828 198.916 109.269Z" fill="#999999"/>
<path d="M201.131 109.269C201.131 107.711 199.147 106.447 196.701 106.447C194.254 106.447 192.271 107.711 192.271 109.269C192.271 110.828 194.254 112.091 196.701 112.091C199.147 112.091 201.131 110.828 201.131 109.269Z" fill="#4D4D4D"/>
<path d="M203.346 109.269C203.346 107.711 201.362 106.447 198.916 106.447C196.469 106.447 194.486 107.711 194.486 109.269C194.486 110.828 196.469 112.091 198.916 112.091C201.362 112.091 203.346 110.828 203.346 109.269Z" fill="#999999"/>
<path d="M205.561 109.269C205.561 107.711 203.577 106.447 201.131 106.447C198.684 106.447 196.701 107.711 196.701 109.269C196.701 110.828 198.684 112.091 201.131 112.091C203.577 112.091 205.561 110.828 205.561 109.269Z" fill="#4D4D4D"/>
<path d="M207.776 109.269C207.776 107.711 205.792 106.447 203.346 106.447C200.899 106.447 198.916 107.711 198.916 109.269C198.916 110.828 200.899 112.091 203.346 112.091C205.792 112.091 207.776 110.828 207.776 109.269Z" fill="#999999"/>
<path d="M209.991 109.269C209.991 107.711 208.007 106.447 205.561 106.447C203.114 106.447 201.131 107.711 201.131 109.269C201.131 110.828 203.114 112.091 205.561 112.091C208.007 112.091 209.991 110.828 209.991 109.269Z" fill="#4D4D4D"/>
<path d="M212.206 109.269C212.206 107.711 210.222 106.447 207.776 106.447C205.329 106.447 203.346 107.711 203.346 109.269C203.346 110.828 205.329 112.091 207.776 112.091C210.222 112.091 212.206 110.828 212.206 109.269Z" fill="#999999"/>
<path d="M214.421 109.269C214.421 107.711 212.437 106.447 209.991 106.447C207.544 106.447 205.561 107.711 205.561 109.269C205.561 110.828 207.544 112.091 209.991 112.091C212.437 112.091 214.421 110.828 214.421 109.269Z" fill="#4D4D4D"/>
<path d="M216.636 109.269C216.636 107.711 214.652 106.447 212.206 106.447C209.759 106.447 207.776 107.711 207.776 109.269C207.776 110.828 209.759 112.091 212.206 112.091C214.652 112.091 216.636 110.828 216.636 109.269Z" fill="#999999"/>
<path d="M161.262 105.507C161.262 103.949 159.278 102.685 156.832 102.685C154.385 102.685 152.402 103.949 152.402 105.507C152.402 107.065 154.385 108.329 156.832 108.329C159.278 108.329 161.262 107.065 161.262 105.507Z" fill="#4D4D4D"/>
<path d="M163.477 105.507C163.477 103.949 161.493 102.685 159.047 102.685C156.6 102.685 154.617 103.949 154.617 105.507C154.617 107.065 156.6 108.329 159.047 108.329C161.493 108.329 163.477 107.065 163.477 105.507Z" fill="#999999"/>
<path d="M165.692 105.507C165.692 103.949 163.708 102.685 161.262 102.685C158.815 102.685 156.832 103.949 156.832 105.507C156.832 107.065 158.815 108.329 161.262 108.329C163.708 108.329 165.692 107.065 165.692 105.507Z" fill="#4D4D4D"/>
<path d="M167.907 105.507C167.907 103.949 165.923 102.685 163.477 102.685C161.03 102.685 159.047 103.949 159.047 105.507C159.047 107.065 161.03 108.329 163.477 108.329C165.923 108.329 167.907 107.065 167.907 105.507Z" fill="#999999"/>
<path d="M170.122 105.507C170.122 103.949 168.138 102.685 165.692 102.685C163.245 102.685 161.262 103.949 161.262 105.507C161.262 107.065 163.245 108.329 165.692 108.329C168.138 108.329 170.122 107.065 170.122 105.507Z" fill="#4D4D4D"/>
<path d="M172.336 105.507C172.336 103.949 170.353 102.685 167.907 102.685C165.46 102.685 163.477 103.949 163.477 105.507C163.477 107.065 165.46 108.329 167.907 108.329C170.353 108.329 172.336 107.065 172.336 105.507Z" fill="#999999"/>
<path d="M174.551 105.507C174.551 103.949 172.568 102.685 170.121 102.685C167.675 102.685 165.692 103.949 165.692 105.507C165.692 107.065 167.675 108.329 170.121 108.329C172.568 108.329 174.551 107.065 174.551 105.507Z" fill="#4D4D4D"/>
<path d="M176.766 105.507C176.766 103.949 174.783 102.685 172.336 102.685C169.89 102.685 167.907 103.949 167.907 105.507C167.907 107.065 169.89 108.329 172.336 108.329C174.783 108.329 176.766 107.065 176.766 105.507Z" fill="#999999"/>
<path d="M178.981 105.507C178.981 103.949 176.998 102.685 174.551 102.685C172.105 102.685 170.121 103.949 170.121 105.507C170.121 107.065 172.105 108.329 174.551 108.329C176.998 108.329 178.981 107.065 178.981 105.507Z" fill="#FFCCAA"/>
<path d="M181.196 105.507C181.196 103.949 179.213 102.685 176.766 102.685C174.32 102.685 172.336 103.949 172.336 105.507C172.336 107.065 174.32 108.329 176.766 108.329C179.213 108.329 181.196 107.065 181.196 105.507Z" fill="#FFB380"/>
<path d="M183.411 105.507C183.411 103.949 181.428 102.685 178.981 102.685C176.535 102.685 174.551 103.949 174.551 105.507C174.551 107.065 176.535 108.329 178.981 108.329C181.428 108.329 183.411 107.065 183.411 105.507Z" fill="#FF9955"/>
<path d="M185.626 105.507C185.626 103.949 183.643 102.685 181.196 102.685C178.75 102.685 176.766 103.949 176.766 105.507C176.766 107.065 178.75 108.329 181.196 108.329C183.643 108.329 185.626 107.065 185.626 105.507Z" fill="#FF8080"/>
<path d="M187.841 105.507C187.841 103.949 185.858 102.685 183.411 102.685C180.965 102.685 178.981 103.949 178.981 105.507C178.981 107.065 180.965 108.329 183.411 108.329C185.858 108.329 187.841 107.065 187.841 105.507Z" fill="#FF5555"/>
<path d="M190.056 105.507C190.056 103.949 188.073 102.685 185.626 102.685C183.18 102.685 181.196 103.949 181.196 105.507C181.196 107.065 183.18 108.329 185.626 108.329C188.073 108.329 190.056 107.065 190.056 105.507Z" fill="#FF2A2A"/>
<path d="M192.271 105.507C192.271 103.949 190.288 102.685 187.841 102.685C185.395 102.685 183.411 103.949 183.411 105.507C183.411 107.065 185.395 108.329 187.841 108.329C190.288 108.329 192.271 107.065 192.271 105.507Z" fill="#D40000"/>
<path d="M147.972 123.378H145.757V161H147.972V123.378Z" fill="black"/>
<path d="M241 121.496H141.327V123.378H241V121.496Z" fill="black"/>
<path d="M190.546 106.849L190.327 106.523L189.028 106.143C187.978 105.836 187.66 105.711 187.366 105.49C187.165 105.34 186.97 105.228 186.932 105.242C186.894 105.256 186.902 105.282 186.95 105.3C186.998 105.318 186.823 105.363 186.562 105.401L186.086 105.469L185.806 105.171C185.583 104.935 185.557 104.852 185.678 104.766C185.875 104.626 186.628 104.834 188.21 105.464C188.487 105.575 188.813 105.641 188.999 105.624C189.282 105.599 189.343 105.624 189.582 105.868C189.842 106.134 189.864 106.142 190.442 106.169C190.939 106.193 191.083 106.232 191.336 106.414C191.66 106.647 191.85 106.667 191.94 106.477C192.031 106.287 192.163 106.394 192.31 106.777C192.397 107.004 192.521 107.147 192.65 107.171C192.775 107.195 192.811 107.235 192.746 107.276C192.687 107.313 192.474 107.286 192.272 107.217C192.04 107.137 191.738 107.121 191.452 107.174C190.887 107.277 190.818 107.253 190.546 106.849L190.546 106.849ZM186.699 105.153C186.68 105.115 186.598 105.084 186.517 105.083C186.428 105.082 186.441 105.11 186.552 105.152C186.652 105.191 186.718 105.191 186.699 105.153L186.699 105.153ZM191.797 106.307C191.838 106.221 191.494 105.973 191.128 105.823C190.549 105.588 190.216 105.337 190.219 105.142C190.223 104.948 190.215 104.948 190.012 105.13C189.805 105.316 189.782 105.314 189.017 105.052L188.233 104.783L188.42 104.442C188.758 103.827 188.756 103.797 188.382 103.932C187.973 104.08 187.831 104.036 187.583 103.684L187.389 103.41L187.549 103.768C187.637 103.965 187.66 104.109 187.6 104.089C187.54 104.068 187.482 104.006 187.47 103.949C187.429 103.747 187.266 103.789 187.151 104.03C187.086 104.166 187.077 104.291 187.13 104.31C187.183 104.328 187.245 104.304 187.268 104.256C187.291 104.208 187.346 104.211 187.39 104.261C187.496 104.385 187.213 104.43 186.929 104.334C186.751 104.274 186.735 104.197 186.829 103.848C186.89 103.62 186.966 103.405 186.996 103.371C187.078 103.28 186.954 103 186.764 102.844C186.615 102.721 186.624 102.716 186.855 102.79C186.995 102.835 187.186 102.985 187.28 103.123L187.45 103.375L187.382 102.92C187.331 102.576 187.346 102.489 187.443 102.566C187.52 102.627 187.62 102.624 187.694 102.557C187.761 102.496 187.918 102.481 188.043 102.524C188.259 102.598 189.051 102.394 189.121 102.247C189.139 102.209 189.014 101.994 188.843 101.769L188.532 101.36L188.407 101.625C188.339 101.771 188.297 101.958 188.315 102.041C188.362 102.257 188.098 102.351 187.767 102.238C187.574 102.172 187.463 102.05 187.396 101.829C187.271 101.419 187.095 101.287 186.841 101.415C186.663 101.505 186.665 101.48 186.861 101.204L187.084 100.89L186.623 100.526C186.369 100.325 186.062 100.127 185.94 100.086C185.665 99.9912 185.532 99.6939 185.733 99.6215C185.83 99.5865 185.999 99.6928 186.278 99.9639C186.511 100.19 186.786 100.374 186.927 100.398C187.085 100.424 187.154 100.478 187.121 100.547C187.09 100.614 187.175 100.687 187.34 100.737C187.489 100.781 187.678 100.876 187.761 100.948C187.894 101.064 187.917 101.051 187.952 100.839C187.995 100.574 188.035 100.567 188.246 100.781C188.328 100.864 188.425 100.902 188.476 100.87C188.595 100.796 188.629 100.033 188.519 99.9023C188.456 99.8269 188.472 99.8117 188.579 99.8473C188.66 99.8745 188.748 100.062 188.774 100.264C188.848 100.834 188.976 101.127 189.182 101.197C189.496 101.305 189.635 101.064 189.558 100.544C189.518 100.279 189.511 100.01 189.541 99.9464C189.571 99.8832 189.479 99.7031 189.338 99.5462C189.182 99.3734 189.11 99.1972 189.157 99.099C189.27 98.8606 189.405 98.8777 189.635 99.1598C189.851 99.4236 190.116 99.4437 190.23 99.2048C190.339 98.9758 190.62 99.0963 190.839 99.4661C191.285 100.217 191.703 100.103 192.446 99.0254C193.449 97.5713 194.355 96.6404 194.623 96.7875C194.863 96.9197 194.716 97.1593 194.233 97.4193C193.507 97.8107 192.549 99.0025 192.459 99.626C192.417 99.916 192.557 99.9262 192.901 99.6583C193.255 99.3827 193.332 99.3947 193.412 99.7383C193.531 100.244 193.787 100.152 194.34 99.4082C194.766 98.834 194.915 98.939 194.571 99.5713C194.269 100.126 194.321 100.35 194.763 100.402C194.969 100.426 195.215 100.285 195.919 99.7386C196.411 99.3566 196.858 99.0595 196.913 99.0783C197.079 99.1354 196.924 99.3331 196.353 99.7924C195.715 100.305 195.439 100.767 195.715 100.861C195.813 100.895 196.129 100.84 196.419 100.739C197.827 100.246 199.388 99.9504 199.976 100.064C200.272 100.121 200.333 100.161 200.283 100.267C200.208 100.424 199.889 100.482 199.054 100.489C197.725 100.5 196.347 100.903 195.439 101.547C194.996 101.862 194.806 102.171 195.013 102.242C195.089 102.269 195.197 102.262 195.251 102.228C195.427 102.119 195.533 102.225 195.442 102.418C195.322 102.669 195.432 102.863 195.756 102.974C195.902 103.024 196.031 103.132 196.044 103.213C196.062 103.339 196.111 103.358 196.363 103.337C196.526 103.324 196.777 103.327 196.92 103.344C197.064 103.361 197.312 103.332 197.471 103.28C197.63 103.228 197.767 103.222 197.776 103.267C197.806 103.411 197.589 103.477 196.938 103.522C195.63 103.613 195.227 103.795 195.937 103.974C196.158 104.029 196.334 104.085 196.327 104.098C196.321 104.111 196.047 104.13 195.718 104.14C195.389 104.15 194.999 104.209 194.852 104.271C194.588 104.383 194.587 104.385 194.781 104.452C194.889 104.489 195.159 104.517 195.382 104.515C195.605 104.513 195.919 104.556 196.08 104.611C196.276 104.678 196.354 104.752 196.315 104.834C196.274 104.92 196.155 104.923 195.924 104.844C195.549 104.715 195.373 104.771 195.504 104.977C195.569 105.08 195.778 105.149 196.324 105.25C196.727 105.324 197.073 105.418 197.093 105.458C197.191 105.653 196.855 105.64 196.225 105.424C195.406 105.143 194.474 105.144 193.564 105.427C192.936 105.623 192.147 106.041 192.06 106.225C192.027 106.293 191.947 106.357 191.88 106.367C191.814 106.376 191.776 106.349 191.797 106.306L191.797 106.307ZM190.077 104.03C190.266 104.014 190.428 103.988 190.437 103.97C190.446 103.952 190.513 103.88 190.587 103.809C190.683 103.717 190.605 103.718 190.309 103.815C189.968 103.926 189.847 103.921 189.602 103.789C189.327 103.64 189.316 103.641 189.437 103.814C189.599 104.046 189.651 104.064 190.077 104.03L190.077 104.03ZM191.984 103.722C191.965 103.684 191.883 103.652 191.802 103.652C191.713 103.651 191.727 103.679 191.837 103.721C191.937 103.76 192.003 103.76 191.984 103.722L191.984 103.722ZM189.546 102.181C189.601 102.147 189.601 102.104 189.548 102.086C189.495 102.068 189.407 102.08 189.353 102.115C189.299 102.148 189.298 102.191 189.351 102.209C189.404 102.227 189.492 102.215 189.546 102.181V102.181ZM190.121 102.034C190.157 101.959 190.23 101.939 190.29 101.986C190.428 102.095 191.107 102.087 191.16 101.976C191.182 101.928 191.162 101.876 191.114 101.86C190.969 101.81 191.025 101.539 191.207 101.41C191.318 101.331 191.372 101.224 191.358 101.111C191.345 101.014 191.342 100.866 191.351 100.783C191.363 100.663 191.274 100.611 190.913 100.526C190.529 100.435 190.453 100.385 190.414 100.201C190.389 100.081 190.332 99.97 190.286 99.9543C190.142 99.9049 189.703 101.182 189.792 101.389C189.837 101.493 189.871 101.695 189.868 101.838C189.861 102.121 190.022 102.245 190.122 102.034L190.121 102.034ZM193.684 102.986C193.845 102.941 193.997 102.859 194.023 102.804C194.049 102.749 194.171 102.716 194.293 102.729C194.47 102.748 194.521 102.709 194.538 102.54C194.568 102.241 194.546 102.217 194.278 102.257C194.09 102.286 194.051 102.271 194.089 102.19C194.124 102.114 194.1 102.108 193.998 102.17C193.922 102.216 193.824 102.212 193.78 102.161C193.736 102.109 193.676 102.116 193.647 102.174C193.606 102.258 193.588 102.251 193.564 102.139C193.547 102.061 193.473 102.006 193.399 102.016C193.247 102.039 193.251 102.004 193.423 101.848C193.489 101.788 193.599 101.758 193.668 101.781C193.737 101.805 193.896 101.724 194.022 101.602C194.554 101.086 194.393 100.852 193.734 101.184C193.301 101.402 193.017 101.376 193.135 101.128C193.177 101.041 193.213 100.85 193.217 100.704L193.223 100.439L192.942 100.58C192.787 100.657 192.619 100.804 192.569 100.907C192.426 101.2 191.943 101.571 191.778 101.515C191.685 101.483 191.597 101.534 191.547 101.65C191.47 101.828 191.474 101.83 191.623 101.7C191.764 101.577 191.775 101.591 191.73 101.832C191.647 102.286 191.653 102.33 191.805 102.383C191.894 102.413 191.989 102.36 192.043 102.249C192.107 102.115 192.14 102.103 192.162 102.205C192.183 102.302 192.225 102.324 192.301 102.277C192.506 102.149 192.58 102.266 192.425 102.476L192.271 102.685L192.683 102.5C193.127 102.3 193.275 102.414 192.954 102.709C192.566 103.065 192.927 103.202 193.684 102.986L193.684 102.986ZM188.414 101.298C188.414 101.222 188.382 101.233 188.332 101.327C188.287 101.412 188.287 101.469 188.332 101.452C188.377 101.436 188.414 101.367 188.415 101.298L188.414 101.298ZM194.351 103.395C194.509 103.368 194.672 103.367 194.713 103.392C194.863 103.483 195.575 103.557 195.609 103.485C195.658 103.382 195.018 103.178 194.523 103.139C194.234 103.116 194.082 103.153 194.032 103.257C193.945 103.441 193.983 103.457 194.351 103.395V103.395ZM191.432 101.64C191.462 101.575 191.455 101.485 191.415 101.438C191.375 101.392 191.307 101.431 191.263 101.524C191.218 101.616 191.226 101.707 191.279 101.726C191.332 101.744 191.401 101.705 191.432 101.64ZM195.07 102.883C195.108 102.843 195.123 102.741 195.103 102.656C195.07 102.517 195.049 102.51 194.913 102.59C194.676 102.73 194.634 102.894 194.827 102.926C194.922 102.941 195.032 102.922 195.07 102.883L195.07 102.883ZM186.106 101.223C186.187 101.223 186.269 101.255 186.287 101.293C186.307 101.331 186.24 101.331 186.14 101.293C186.029 101.251 186.016 101.223 186.105 101.223L186.106 101.223ZM197.047 104.136C197.181 104.105 197.335 104.095 197.388 104.113C197.441 104.131 197.375 104.171 197.24 104.202C197.106 104.233 196.952 104.243 196.899 104.225C196.846 104.207 196.912 104.167 197.047 104.136V104.136ZM196.082 103.099C196.072 103.048 196.15 102.983 196.255 102.954C196.411 102.912 196.436 102.926 196.386 103.031C196.314 103.184 196.108 103.23 196.082 103.099V103.099ZM196.48 102.977C196.488 102.583 197.049 102.178 197.414 102.303C197.516 102.338 197.613 102.34 197.63 102.305C197.646 102.271 197.78 102.282 197.927 102.329C198.074 102.376 198.285 102.411 198.395 102.408C198.537 102.403 198.578 102.437 198.536 102.525C198.469 102.665 197.918 102.666 197.513 102.528C197.344 102.47 197.155 102.484 197.007 102.566C196.675 102.749 196.633 102.893 196.886 102.983C197.097 103.059 197.096 103.062 196.857 103.117C196.546 103.188 196.476 103.162 196.48 102.976L196.48 102.977ZM187.289 99.1463C187.293 99.0115 187.308 99.0059 187.365 99.1191C187.405 99.1973 187.403 99.2737 187.361 99.2887C187.319 99.3037 187.287 99.2397 187.289 99.1465L187.289 99.1463ZM188.623 98.8068C188.646 98.7591 188.697 98.7578 188.736 98.804C188.776 98.8502 188.801 98.9041 188.792 98.924C188.782 98.9438 188.731 98.9452 188.678 98.9268C188.625 98.9085 188.6 98.8547 188.623 98.8068V98.8068Z" fill="#FF0000"/>
</g>
</g>
<defs>
<clipPath id="clip0_1_91">
<path d="M0 20C0 8.9543 8.9543 0 20 0H225C236.046 0 245 8.95431 245 20V161H0V20Z" fill="white"/>
</clipPath>
<clipPath id="clip1_1_91">
<rect width="216" height="166" fill="white" transform="translate(-8 -17)"/>
</clipPath>
</defs>
</svg>
