<svg width="245" height="162" viewBox="0 0 245 162" fill="none" xmlns="http://www.w3.org/2000/svg">
<path d="M245 0H0V162H245V0Z" fill="white"/>
<path d="M245 0H0V162H245V0Z" fill="#332E2F"/>
<path d="M220.837 136.822C220.426 147.129 198.546 155.324 171.89 155.221C145.234 155.118 123.97 146.666 124.33 136.358C124.741 126.05 146.62 117.856 173.277 117.959C199.933 118.114 221.248 126.566 220.837 136.822Z" fill="#A2B2B2"/>
<path d="M220.22 135.946C219.861 145.996 198.186 154.035 171.838 153.881C145.49 153.778 124.432 145.532 124.792 135.482C125.152 125.432 146.826 117.392 173.174 117.547C199.573 117.65 220.58 125.896 220.22 135.946Z" fill="white"/>
<path opacity="0.4" d="M202.758 132.699C202.501 138.935 189.096 143.882 172.814 143.831C156.482 143.728 143.487 138.626 143.693 132.441C143.95 126.205 157.355 121.258 173.636 121.309C189.969 121.36 203.014 126.463 202.758 132.699Z" fill="#404041"/>
<path d="M147.237 112.599C146.929 112.341 146.569 112.135 146.209 111.981C145.593 111.723 144.72 111.414 144.001 111.362C142.717 111.207 141.433 111.053 140.149 110.847C137.324 110.435 134.602 109.867 131.88 109.146C127.103 107.857 117.91 105.332 115.907 101.209C114.161 97.7561 117.088 93.2725 122.173 94.2517C124.792 94.7669 126.949 97.0861 129.62 97.7561C139.224 100.281 133.215 88.8916 129.414 86.7784C125.871 84.7684 120.889 84.7172 116.78 85.7476C106.148 88.4276 104.556 97.0861 107.638 103.529C110.565 109.713 117.961 113.424 125.254 115.846C128.747 116.98 132.445 117.804 136.143 118.371C139.943 118.938 143.847 119.608 147.237 117.804C149.599 116.413 149.548 113.887 147.237 112.599Z" fill="#E6E6D0"/>
<path d="M127.411 107.857C127.771 108.94 127.822 110.074 127.463 111.156C127.309 111.62 127.052 112.032 126.744 112.341C125.614 113.063 124.073 113.475 122.43 113.578C120.735 113.475 118.886 113.011 117.191 112.496C119.707 113.836 122.481 114.918 125.203 115.846C128.644 116.98 132.24 117.753 135.886 118.32C136.297 115.485 134.345 112.135 132.907 109.919C132.804 109.713 132.65 109.507 132.496 109.301C132.291 109.249 132.085 109.197 131.829 109.146C130.647 108.785 129.055 108.373 127.411 107.857Z" fill="#C8D8D8"/>
<path opacity="0.5" d="M117.448 103.116C116.78 102.498 116.215 101.879 115.907 101.209C114.161 97.7561 117.088 93.2725 122.173 94.2517C124.792 94.7669 126.949 97.0861 129.62 97.7561C130.339 97.9621 132.445 98.5293 133.113 97.9621C133.729 97.4469 132.907 96.4677 132.804 95.8493C132.291 93.4785 131.777 91.4168 130.647 89.0976C129.877 87.5 128.85 83.944 125.974 84.0472C123.765 84.0984 123.406 86.624 123.303 87.9124C123.2 89.3552 123.662 90.386 121.505 90.9532C120.221 91.314 118.834 91.056 117.55 91.4684C114.982 92.2932 113.39 94.3545 113.082 96.5193C112.774 98.9413 114.674 101.982 117.448 103.116Z" fill="#A4BABA"/>
<path d="M221.196 82.1916C220.169 78.8416 216.779 75.5432 213.954 73.6879C209.075 70.5443 203.117 69.2555 197.519 68.0703C185.09 65.4419 172.249 64.8751 159.614 66.1635C149.856 67.1427 138.659 68.3795 130.698 74.7187C127.155 77.5532 124.998 81.6248 124.381 86.0568C124.022 88.6341 124.535 91.3141 125.152 93.7877C125.973 97.1377 126.898 100.539 127.668 103.889C130.698 116.773 135.989 129.297 150.421 136.564C163.929 143.316 181.289 143.109 194.899 136.77C200.703 134.09 205.788 130.483 209.229 125.844C212.362 121.618 214.57 117.083 216.522 112.496C220.374 103.168 224.278 92.0353 221.196 82.1916Z" fill="#E6E6D0"/>
<path opacity="0.3" d="M217.138 111.001C218.217 108.373 219.244 105.59 220.117 102.755C171.325 130.225 134.756 107.291 127.103 101.776C127.257 102.498 127.463 103.219 127.617 103.941C128.079 105.899 128.593 107.857 129.158 109.816C139.738 116.671 173.225 134.09 217.138 111.001Z" fill="white"/>
<path opacity="0.3" d="M120.94 87.655C115.958 86.4694 110.719 89.5102 109.127 93.221C108.151 95.4886 107.946 97.8078 108.459 100.179C108.87 102.137 110.206 104.714 112.26 105.899C113.03 106.363 114.058 105.745 114.058 105.075C114.109 103.528 112.62 102.034 112.003 100.591C111.182 98.6322 111.387 96.5194 112.106 94.561C112.825 92.6538 114.469 91.211 116.728 90.4378C118.321 89.871 119.913 89.6134 121.248 88.6854C121.711 88.3762 121.454 87.8094 120.94 87.655Z" fill="white"/>
<path opacity="0.2" d="M196.8 100.9C196.8 100.9 212.773 98.3746 220.066 90.8502C220.066 90.8502 214.981 135.791 178.721 138.471C178.721 138.523 192.177 128.834 196.8 100.9Z" fill="white"/>
<path d="M128.284 85.3357C128.439 85.7478 131.212 83.0681 131.418 82.7073C132.137 81.1609 132.958 81.0065 135.218 79.8209C137.684 78.5325 141.176 77.7081 144.514 77.0897C152.116 75.7497 160.436 73.9972 168.5 73.7912C177.848 73.5848 186.784 73.9456 195.772 75.3889C200.6 76.1621 205.223 77.2957 209.537 78.5841C211.592 79.2025 213.492 79.9757 215.084 80.8517C216.625 81.7281 216.727 82.7073 216.83 83.7893C216.882 84.5109 219.398 85.7478 220.117 84.9233C220.117 84.9233 226.64 68.2764 175.177 68.2764C123.148 68.2764 127.566 84.0985 128.284 85.3357Z" fill="#CCCBCB"/>
<path d="M217.755 83.3772C215.135 88.9948 204.093 91.4685 197.365 94.4577C197.159 94.5609 197.056 94.7153 197.056 94.8185C199.213 94.3545 201.319 93.8393 203.374 93.1693C208.869 91.4685 214.519 89.4584 217.96 86.4692C221.401 83.48 220.477 80.6972 217.498 78.3264C218.371 79.9756 218.576 81.6764 217.755 83.3772Z" fill="#878F8C"/>
<path d="M220.169 83.5832C220.169 91.0561 199.676 97.0862 174.407 97.0862C149.137 97.0862 128.644 91.0045 128.644 83.5832C128.644 76.1104 149.137 70.0803 174.407 70.0803C199.676 70.0287 220.169 76.1104 220.169 83.5832Z" fill="#AA784B"/>
<path d="M135.693 75.2844C139.12 73.6671 143.213 72.4542 146.846 71.7466C154.929 70.2306 163.78 69.523 172.221 69.4726C182.914 69.3716 193.044 69.9779 203.173 71.6962C210.796 72.9595 219.647 75.7898 221.08 80.8437C222.461 85.7962 216.833 89.435 210.234 92.0126C198.313 96.6115 182.3 98.3298 168.231 97.6727C160.301 97.3191 152.422 96.2071 145.464 93.933C139.888 92.1135 134.106 89.9403 130.577 86.7565C125.614 82.2588 129.553 78.1652 135.693 75.2844Z" fill="#AA784B"/>
<path d="M173.225 93.5817C171.376 93.5817 169.527 93.5301 167.678 93.4785C159.307 93.0661 151.859 91.7777 145.645 89.6133C140.56 87.8609 134.962 85.6449 131.88 82.6556C131.161 81.9856 130.956 81.5216 130.904 81.3672C131.109 80.8 132.342 79.1508 136.246 77.1924C139.225 75.698 143.025 74.4096 146.723 73.688C154.119 72.1936 162.748 71.3688 171.685 71.3172C172.352 71.3172 173.02 71.3172 173.688 71.3172C184.165 71.3172 193.513 72.0904 202.244 73.6364C212.568 75.4916 217.036 78.8416 217.549 80.6972C217.909 82.1401 215.341 84.9233 208.767 87.6549C199.419 91.4169 186.476 93.5817 173.225 93.5817Z" fill="#C28F5F"/>
<path d="M173.071 94.6637C171.017 94.6637 168.962 94.6124 166.908 94.5093C157.663 93.9424 148.88 93.3753 141.998 90.3348C137.633 88.376 132.291 88.1184 129.62 81.5732C130.288 81.0063 131.109 80.3879 132.188 79.6663C135.373 77.6563 139.43 75.9039 143.385 74.9247C151.602 72.8119 161.207 71.6779 171.171 71.5747C171.89 71.5747 172.66 71.5747 173.379 71.5747C185.09 71.5747 195.516 72.6571 205.274 74.8731C213.338 76.7287 217.549 79.4603 219.347 81.1608C218.217 82.3979 216.523 85.6448 212.568 87.706C202.552 93.0145 187.76 94.6637 173.071 94.6637Z" fill="url(#paint0_radial_1_48)"/>
<path d="M172.198 96.6737C170.144 96.6737 168.089 96.6221 166.086 96.4677C156.944 95.7977 148.983 93.4785 141.844 90.7469C139.07 89.6649 137.735 89.0461 135.835 87.9641C134.345 87.0877 130.904 84.8716 131.931 82.2948C132.496 80.8 138.557 78.584 140.406 78.0688C147.956 75.904 154.992 74.4096 162.44 73.8427C165.11 73.6364 167.73 73.5332 170.4 73.4819C171.12 73.4819 171.89 73.4819 172.609 73.4819C182.265 73.4819 191.972 74.358 201.422 76.6256C203.99 77.244 206.507 77.8112 209.024 78.6356C210.565 79.1508 216.009 80.4396 215.598 83.1192C215.29 85.0777 213.235 86.4177 211.951 87.1909C201.885 93.4269 186.733 96.6737 172.198 96.6737Z" fill="#131416"/>
<path d="M137.427 75.5948C137.427 75.5948 132.445 77.4504 130.339 79.7696L130.699 80.1301C130.647 80.1301 135.321 76.4196 137.427 75.5948Z" fill="#B18661"/>
<path d="M213.954 76.7805C213.954 76.7805 216.163 77.8625 217.344 78.8933L217.241 79.1509L213.954 76.7805Z" fill="#B18661"/>
<path d="M173.687 67.1944C147.596 67.1944 126.384 73.7913 126.384 81.9858C126.384 92.3446 147.545 98.0139 173.687 98.0139C199.779 98.0139 220.991 94.5095 220.991 81.9858C220.939 73.7913 199.779 67.1944 173.687 67.1944ZM173.687 93.6331C149.753 93.6331 130.39 88.0158 130.39 81.0581C130.39 74.1005 149.753 68.4828 173.687 68.4828C197.622 68.4828 216.985 74.1005 216.985 81.0581C216.985 87.9642 197.622 93.6331 173.687 93.6331Z" fill="#E6E6D0"/>
<path opacity="0.5" d="M166.754 94.8701C166.754 94.973 166.702 95.0762 166.6 95.1793C165.829 96.4678 161.412 95.437 160.231 95.3338C155.814 94.8186 151.397 94.303 147.031 93.3753C144.823 92.9117 142.614 92.3445 140.509 91.6745C132.085 89.0461 127.206 85.4901 127.206 81.9856C127.206 79.0996 130.442 76.2132 136.246 73.7912C131.88 75.904 129.517 78.378 129.517 81.0064C129.517 84.7685 134.243 88.1701 142.768 90.6441C149.445 92.6025 156.379 93.4785 163.313 93.9937C163.929 94.0453 166.959 93.9938 166.754 94.8701Z" fill="white"/>
<path opacity="0.2" d="M210.308 82.6556C210.308 86.3664 198.906 89.3553 184.833 89.3553C170.76 89.3553 176.82 83.3256 180.005 82.6556C197.108 78.9964 170.76 75.9556 184.833 75.9556C198.906 75.9556 210.308 80.388 210.308 82.6556Z" fill="white"/>
<path opacity="0.5" d="M189.609 93.7361C189.609 93.7361 185.757 94.0453 184.987 94.8185C184.165 95.5917 187.658 96.5193 195.208 95.0761C202.758 93.6329 211.386 91.056 213.389 88.5824C215.341 86.1084 211.951 87.964 207.534 89.8192C203.015 91.6232 189.609 93.7361 189.609 93.7361Z" fill="white"/>
<g opacity="0.5">
<path opacity="0.5" d="M158.639 6.07027C158.639 6.07027 174.509 17.0994 167.216 30.4992C159.923 43.9506 167.216 56.2683 167.216 56.2683C166.137 54.3098 166.445 50.393 166.548 48.3314C166.754 43.2806 167.729 38.2297 169.938 33.5915C171.427 30.4992 173.585 27.6131 173.944 24.1601C174.509 18.2848 169.527 13.801 165.059 10.5025C163.004 9.00793 160.847 7.51332 158.639 6.07027Z" fill="white"/>
<path opacity="0.5" d="M175.742 15.3472C175.742 15.3472 182.676 22.3048 178.002 29.1078C173.276 35.9108 177.437 42.8683 177.437 42.8683C176.974 41.7346 177.385 39.673 177.539 38.5394C177.95 35.8592 178.772 33.1793 180.21 30.8086C181.186 29.2624 182.521 27.8193 182.932 25.964C183.6 22.8202 181.186 20.1402 178.926 18.0787C177.899 17.2025 176.871 16.2748 175.742 15.3472Z" fill="white"/>
<path opacity="0.5" d="M174.612 30.1385C174.612 30.1385 167.73 46.0638 173.122 55.7014C178.207 64.8751 172.352 70.2864 172.352 70.2864C172.352 70.2864 181.546 66.2151 176.564 56.0107C170.349 43.4354 174.612 30.1385 174.612 30.1385Z" fill="white"/>
</g>
<path opacity="0.7" d="M168.346 57.196C168.346 57.196 173.482 61.3188 169.99 65.3904C166.497 69.4105 169.579 73.5849 169.579 73.5849C169.219 72.9149 169.527 71.6781 169.681 71.0081C169.99 69.4104 170.606 67.8128 171.685 66.4212C172.403 65.4936 173.379 64.6172 173.688 63.5352C174.15 61.6796 172.403 60.082 170.76 58.8452C169.938 58.2784 169.168 57.7112 168.346 57.196Z" fill="white"/>
<path d="M67.9497 100.043V101.321H39.0745C35.6221 101.321 32.8231 104.129 32.8237 107.594V133.928C32.8237 137.393 30.0241 140.201 26.5711 140.201H25.9131C22.4601 140.201 19.6605 137.393 19.6605 133.928V92.8175C19.6605 89.3526 22.4601 86.5443 25.9131 86.5451H39.9392C41.6946 86.5451 43.3692 87.2856 44.5541 88.5854L48.8113 93.2595C49.1074 93.5847 49.5263 93.7702 49.9656 93.7702H61.6973C65.15 93.7698 67.9497 96.5785 67.9497 100.043Z" fill="#E9B78A"/>
<path d="M75.6173 107.594V133.928C75.6173 137.393 72.8175 140.201 69.3649 140.201H26.5711C30.0241 140.201 32.8236 137.393 32.8236 133.928V107.594C32.8231 104.13 35.6221 101.321 39.0745 101.321H69.3649C72.8175 101.321 75.6173 104.129 75.6173 107.594Z" fill="#AA784B"/>
<path d="M43.7072 127.017C43.2754 127.018 42.8886 126.748 42.7396 126.341C42.5903 125.934 42.7098 125.476 43.0383 125.196L48.786 120.284L43.0383 115.372C42.6137 114.999 42.5665 114.353 42.9321 113.923C43.2977 113.492 43.9408 113.436 44.3752 113.797L51.0443 119.496C51.2742 119.693 51.4065 119.98 51.4065 120.284C51.4065 120.587 51.2742 120.874 51.0443 121.071L44.3752 126.77C44.1888 126.93 43.9518 127.018 43.7072 127.017Z" fill="#424345"/>
<path d="M64.7337 127.972H51.4806C50.9112 127.972 50.4499 127.509 50.4499 126.937C50.4499 126.366 50.9112 125.903 51.4806 125.903H64.7337C65.3031 125.903 65.7643 126.366 65.7643 126.937C65.7643 127.509 65.3031 127.972 64.7337 127.972Z" fill="#424345"/>
<defs>
<radialGradient id="paint0_radial_1_48" cx="0" cy="0" r="1" gradientUnits="userSpaceOnUse" gradientTransform="translate(175.08 82.9617) scale(49.0102 12.7796)">
<stop offset="0.2673" stop-color="#131416"/>
<stop offset="0.4512" stop-color="#151617"/>
<stop offset="0.5522" stop-color="#1D1B1A"/>
<stop offset="0.633" stop-color="#2B2520"/>
<stop offset="0.7032" stop-color="#3F3328"/>
<stop offset="0.7665" stop-color="#584433"/>
<stop offset="0.8248" stop-color="#775A40"/>
<stop offset="0.8782" stop-color="#9B744F"/>
<stop offset="0.9255" stop-color="#C28F5F"/>
</radialGradient>
</defs>
</svg>
