<svg width="245" height="161" viewBox="0 0 245 161" fill="none" xmlns="http://www.w3.org/2000/svg">
<g clip-path="url(#clip0_1_91)">
<path d="M245 0H0V161H245V0Z" fill="white"/>
<path d="M245 0H0V161H245V0Z" fill="#EBE9DC"/>
<path d="M158.04 16.5902H-9.07407V183.246H158.04V16.5902Z" fill="#EBE9DC"/>
<path d="M18.5834 151.798C18.5834 151.798 2.51534 145.89 5.8827 129.016C8.55653 115.6 21.1402 112.184 31.2339 114.175C43.3163 116.559 47.561 103.843 46.8506 97.2182C46.1406 90.5934 52.1733 81.3357 67.8987 80.6442C82.3877 80.0025 89.8908 98.0262 94.9462 104.176C102.7 113.617 114.423 106.459 123.531 100.668C133.525 94.3183 143.752 106.017 143.752 125.408C143.752 144.798 128.879 152.381 128.879 152.381L18.5834 151.798Z" fill="white"/>
<path d="M112.209 100.526C112.209 100.526 118.868 96.6434 115.835 91.7353C112.802 86.8273 107.179 89.6103 104.823 92.0521C102.466 94.4935 100.586 98.385 104.096 101.393C107.38 104.21 112.209 100.526 112.209 100.526Z" fill="white"/>
<path d="M32.8382 99.2094C32.8382 99.2094 26.6884 97.0931 25.2094 101.726C23.7221 106.359 28.6018 108.417 31.4595 108.584C34.3172 108.742 37.8517 107.809 37.8517 103.918C37.8517 100.268 32.8382 99.2094 32.8382 99.2094Z" fill="white"/>
<g opacity="0.4">
<g opacity="0.4">
<path opacity="0.4" d="M91.6709 96.0933H90.0413L95.0132 96.1016C95.0132 96.1016 95.0132 96.1016 95.0215 96.0933H91.6709Z" fill="#EFF2BD"/>
</g>
</g>
<path d="M229.355 46.2083H154.781C152.405 46.2083 150.478 48.1294 150.478 50.4987V104.846C150.478 107.216 152.405 109.136 154.781 109.136H229.355C231.731 109.136 233.657 107.216 233.657 104.846V50.4987C233.657 48.1294 231.731 46.2083 229.355 46.2083ZM222.184 49.0686H223.618C224.411 49.0686 225.053 49.7088 225.053 50.4987C225.053 51.2887 224.411 51.9289 223.618 51.9289H222.184C221.392 51.9289 220.75 51.2887 220.75 50.4987C220.75 49.7088 221.392 49.0686 222.184 49.0686ZM182.029 49.0686H216.448C217.24 49.0686 217.882 49.7088 217.882 50.4987C217.882 51.2887 217.24 51.9289 216.448 51.9289H182.029C181.237 51.9289 180.595 51.2887 180.595 50.4987C180.595 49.7088 181.237 49.0686 182.029 49.0686ZM174.859 49.0686H176.293C177.085 49.0686 177.727 49.7088 177.727 50.4987C177.727 51.2887 177.085 51.9289 176.293 51.9289H174.859C174.066 51.9289 173.424 51.2887 173.424 50.4987C173.424 49.7088 174.066 49.0686 174.859 49.0686ZM169.122 49.0686H170.556C171.348 49.0686 171.99 49.7088 171.99 50.4987C171.99 51.2887 171.348 51.9289 170.556 51.9289H169.122C168.33 51.9289 167.688 51.2887 167.688 50.4987C167.688 49.7088 168.33 49.0686 169.122 49.0686ZM163.386 49.0686C164.178 49.0686 164.82 49.7088 164.82 50.4987C164.82 51.2887 164.178 51.9289 163.386 51.9289C162.593 51.9289 161.951 51.2887 161.951 50.4987C161.951 49.7088 162.593 49.0686 163.386 49.0686ZM159.083 49.0686C159.875 49.0686 160.517 49.7088 160.517 50.4987C160.517 51.2887 159.875 51.9289 159.083 51.9289C158.291 51.9289 157.649 51.2887 157.649 50.4987C157.649 49.7088 158.291 49.0686 159.083 49.0686ZM154.781 49.0686C155.573 49.0686 156.215 49.7088 156.215 50.4987C156.215 51.2887 155.573 51.9289 154.781 51.9289C153.989 51.9289 153.347 51.2887 153.347 50.4987C153.347 49.7088 153.989 49.0686 154.781 49.0686ZM230.789 63.3705V104.846C230.789 105.636 230.147 106.276 229.355 106.276H192.068H154.781C153.989 106.276 153.347 105.636 153.347 104.846V63.3705V56.2193C153.347 55.4298 153.989 54.7892 154.781 54.7892H192.068H229.355C230.147 54.7892 230.789 55.4298 230.789 56.2193V63.3705ZM229.355 51.9289H227.921C227.129 51.9289 226.487 51.2883 226.487 50.4987C226.487 49.7088 227.129 49.0682 227.921 49.0682H229.355C230.147 49.0682 230.789 49.7088 230.789 50.4987C230.789 51.2887 230.147 51.9289 229.355 51.9289Z" fill="#D2DCF0"/>
<path d="M192.068 106.276H229.355C230.147 106.276 230.789 105.636 230.789 104.846V63.3704H192.068V106.276ZM213.58 70.5212V69.091C213.58 68.3011 214.222 67.6609 215.014 67.6609H225.053C225.845 67.6609 226.487 68.3011 226.487 69.091V70.5212V81.9627C226.487 82.7526 225.845 83.3932 225.053 83.3932H215.014C214.222 83.3932 213.58 82.7526 213.58 81.9627V70.5212ZM196.37 70.5212V69.091C196.37 68.3011 197.012 67.6609 197.805 67.6609H207.843C208.635 67.6609 209.278 68.3011 209.278 69.091V70.5212V81.9627C209.278 82.7526 208.635 83.3932 207.843 83.3932H197.804C197.013 83.3932 196.37 82.7526 196.37 81.9627V70.5212ZM197.804 87.6837H199.239H225.053C225.845 87.6837 226.487 88.3239 226.487 89.1138V100.555C226.487 101.345 225.845 101.986 225.053 101.986H199.239H197.804C197.013 101.986 196.37 101.345 196.37 100.555V89.1138C196.37 88.3239 197.013 87.6837 197.804 87.6837Z" fill="white"/>
<path d="M154.781 51.9286C155.573 51.9286 156.215 51.2883 156.215 50.4984C156.215 49.7085 155.573 49.0683 154.781 49.0683C153.989 49.0683 153.347 49.7085 153.347 50.4984C153.347 51.2883 153.989 51.9286 154.781 51.9286Z" fill="#FF6469"/>
<path d="M159.083 51.9286C159.875 51.9286 160.517 51.2883 160.517 50.4984C160.517 49.7085 159.875 49.0683 159.083 49.0683C158.291 49.0683 157.649 49.7085 157.649 50.4984C157.649 51.2883 158.291 51.9286 159.083 51.9286Z" fill="#FFE169"/>
<path d="M163.385 51.9286C164.178 51.9286 164.82 51.2883 164.82 50.4984C164.82 49.7085 164.178 49.0683 163.385 49.0683C162.593 49.0683 161.951 49.7085 161.951 50.4984C161.951 51.2883 162.593 51.9286 163.385 51.9286Z" fill="#87E1AA"/>
<path d="M169.122 51.9285H170.556C171.348 51.9285 171.99 51.2879 171.99 50.4984C171.99 49.7084 171.348 49.0678 170.556 49.0678H169.122C168.33 49.0678 167.688 49.7084 167.688 50.4984C167.688 51.2883 168.33 51.9285 169.122 51.9285Z" fill="#E4EAF6"/>
<path d="M174.859 51.9285H176.293C177.085 51.9285 177.727 51.2879 177.727 50.4984C177.727 49.7084 177.085 49.0678 176.293 49.0678H174.859C174.066 49.0678 173.424 49.7084 173.424 50.4984C173.424 51.2883 174.066 51.9285 174.859 51.9285Z" fill="#E4EAF6"/>
<path d="M222.184 51.9285H223.618C224.41 51.9285 225.053 51.2879 225.053 50.4984C225.053 49.7084 224.41 49.0678 223.618 49.0678H222.184C221.392 49.0678 220.75 49.7084 220.75 50.4984C220.75 51.2883 221.392 51.9285 222.184 51.9285Z" fill="#E4EAF6"/>
<path d="M229.355 49.0683H227.921C227.129 49.0683 226.487 49.7085 226.487 50.4984C226.487 51.2883 227.129 51.9286 227.921 51.9286H229.355C230.147 51.9286 230.789 51.2883 230.789 50.4984C230.789 49.7085 230.147 49.0683 229.355 49.0683Z" fill="#E4EAF6"/>
<path d="M182.029 51.9285H216.448C217.24 51.9285 217.882 51.2879 217.882 50.4984C217.882 49.7084 217.24 49.0678 216.448 49.0678H182.029C181.237 49.0678 180.595 49.7084 180.595 50.4984C180.595 51.2883 181.237 51.9285 182.029 51.9285Z" fill="#E4EAF6"/>
<path d="M229.355 54.7889H192.068V63.3702H230.789V56.2195C230.789 55.4295 230.147 54.7889 229.355 54.7889ZM202.107 60.5099H196.37C195.578 60.5099 194.936 59.8693 194.936 59.0794C194.936 58.2898 195.578 57.6492 196.37 57.6492H202.107C202.899 57.6492 203.541 58.2898 203.541 59.0794C203.541 59.8693 202.899 60.5099 202.107 60.5099ZM213.58 60.5099H207.843C207.051 60.5099 206.409 59.8693 206.409 59.0794C206.409 58.2898 207.051 57.6492 207.843 57.6492H213.58C214.372 57.6492 215.014 58.2898 215.014 59.0794C215.014 59.8693 214.372 60.5099 213.58 60.5099ZM225.053 60.5099H219.316C218.524 60.5099 217.882 59.8693 217.882 59.0794C217.882 58.2898 218.524 57.6492 219.316 57.6492H225.053C225.845 57.6492 226.487 58.2898 226.487 59.0794C226.487 59.8693 225.845 60.5099 225.053 60.5099Z" fill="#FF6469"/>
<path d="M202.107 57.6498H196.37C195.578 57.6498 194.936 58.29 194.936 59.0799C194.936 59.8698 195.578 60.51 196.37 60.51H202.107C202.899 60.51 203.541 59.8698 203.541 59.0799C203.541 58.29 202.899 57.6498 202.107 57.6498Z" fill="#D2555F"/>
<path d="M213.58 57.6498H207.843C207.051 57.6498 206.409 58.29 206.409 59.0799C206.409 59.8698 207.051 60.51 207.843 60.51H213.58C214.371 60.51 215.014 59.8698 215.014 59.0799C215.014 58.29 214.371 57.6498 213.58 57.6498Z" fill="#D2555F"/>
<path d="M225.053 57.6498H219.316C218.524 57.6498 217.882 58.29 217.882 59.0799C217.882 59.8698 218.524 60.51 219.316 60.51H225.053C225.845 60.51 226.487 59.8698 226.487 59.0799C226.487 58.29 225.845 57.6498 225.053 57.6498Z" fill="#D2555F"/>
<path d="M197.804 83.3925H207.843C208.635 83.3925 209.277 82.7523 209.277 81.9624V70.5209C209.277 71.3108 208.635 71.951 207.843 71.951H197.804C197.012 71.951 196.37 71.3108 196.37 70.5209V81.9624C196.37 82.7523 197.012 83.3925 197.804 83.3925Z" fill="#DEE3ED"/>
<path d="M215.014 83.3925H225.053C225.845 83.3925 226.487 82.7523 226.487 81.9624V70.5209C226.487 71.3108 225.845 71.951 225.053 71.951H215.014C214.222 71.951 213.58 71.3108 213.58 70.5209V81.9624C213.58 82.7523 214.222 83.3925 215.014 83.3925Z" fill="#DEE3ED"/>
<path d="M197.804 71.9514H207.843C208.635 71.9514 209.277 71.3108 209.277 70.5209V69.0907C209.277 68.3008 208.635 67.6606 207.843 67.6606H197.804C197.012 67.6606 196.37 68.3008 196.37 69.0907V70.5209C196.37 71.3108 197.012 71.9514 197.804 71.9514Z" fill="#FF969B"/>
<path d="M215.014 71.9514H225.053C225.845 71.9514 226.487 71.3108 226.487 70.5209V69.0907C226.487 68.3008 225.845 67.6606 225.053 67.6606H215.014C214.222 67.6606 213.58 68.3008 213.58 69.0907V70.5209C213.58 71.3108 214.222 71.9514 215.014 71.9514Z" fill="#A0DCF0"/>
<path d="M200.673 89.1139V100.555C200.673 101.345 200.03 101.986 199.239 101.986H225.053C225.845 101.986 226.487 101.345 226.487 100.555V89.1139C226.487 88.324 225.845 87.6837 225.053 87.6837H199.239C200.03 87.6837 200.673 88.324 200.673 89.1139Z" fill="#DEE3ED"/>
<path d="M197.804 101.986H199.238C200.031 101.986 200.673 101.345 200.673 100.555V89.1138C200.673 88.3239 200.031 87.6833 199.238 87.6833H197.804C197.012 87.6833 196.37 88.3239 196.37 89.1138V100.555C196.37 101.345 197.012 101.986 197.804 101.986Z" fill="#91E6BE"/>
<path d="M192.068 54.7889H154.781C153.989 54.7889 153.347 55.4295 153.347 56.2195V63.3702V104.846C153.347 105.636 153.989 106.276 154.781 106.276H192.068V63.3702V54.7889ZM164.82 59.0794H187.766C188.557 59.0794 189.2 59.72 189.2 60.5099C189.2 61.2994 188.557 61.94 187.766 61.94H164.82C164.028 61.94 163.386 61.2994 163.386 60.5099C163.386 59.72 164.028 59.0794 164.82 59.0794ZM157.649 59.0794H159.083C159.875 59.0794 160.517 59.72 160.517 60.5099C160.517 61.2994 159.875 61.94 159.083 61.94H157.649C156.857 61.94 156.215 61.2994 156.215 60.5099C156.215 59.72 156.857 59.0794 157.649 59.0794ZM171.99 67.6606H167.688C166.896 67.6606 166.254 67.0204 166.254 66.2305C166.254 65.4406 166.896 64.8003 167.688 64.8003H171.99C172.782 64.8003 173.425 65.4406 173.425 66.2305C173.425 67.0204 172.782 67.6606 171.99 67.6606ZM173.425 71.9515C173.425 72.741 172.782 73.3816 171.99 73.3816H167.688C166.896 73.3816 166.254 72.741 166.254 71.9515C166.254 71.1615 166.896 70.5209 167.688 70.5209H171.99C172.782 70.5209 173.425 71.1615 173.425 71.9515ZM157.649 81.9625H159.083C159.875 81.9625 160.517 82.6031 160.517 83.393C160.517 84.1826 159.875 84.8232 159.083 84.8232H157.649C156.857 84.8232 156.215 84.1826 156.215 83.393C156.215 82.6031 156.857 81.9625 157.649 81.9625ZM156.215 77.6721C156.215 76.8821 156.857 76.2419 157.649 76.2419H159.083C159.875 76.2419 160.517 76.8821 160.517 77.6721C160.517 78.462 159.875 79.1022 159.083 79.1022H157.649C156.857 79.1022 156.215 78.462 156.215 77.6721ZM160.517 87.6835H161.951C162.744 87.6835 163.386 88.3237 163.386 89.1136C163.386 89.9035 162.744 90.5438 161.951 90.5438H160.517C159.725 90.5438 159.083 89.9035 159.083 89.1136C159.083 88.3237 159.725 87.6835 160.517 87.6835ZM161.951 73.3816H160.517C159.725 73.3816 159.083 72.741 159.083 71.9511C159.083 71.1615 159.725 70.5209 160.517 70.5209H161.951C162.744 70.5209 163.386 71.1615 163.386 71.9511C163.386 72.741 162.744 73.3816 161.951 73.3816ZM161.951 67.6606H160.517C159.725 67.6606 159.083 67.0204 159.083 66.2305C159.083 65.4406 159.725 64.8003 160.517 64.8003H161.951C162.744 64.8003 163.386 65.4406 163.386 66.2305C163.386 67.0204 162.744 67.6606 161.951 67.6606ZM159.083 101.985H157.649C156.857 101.985 156.215 101.345 156.215 100.555C156.215 99.7652 156.857 99.1246 157.649 99.1246H159.083C159.875 99.1246 160.517 99.7652 160.517 100.555C160.517 101.345 159.875 101.985 159.083 101.985ZM161.951 96.2643H160.517C159.725 96.2643 159.083 95.6241 159.083 94.8342C159.083 94.0443 159.725 93.4041 160.517 93.4041H161.951C162.744 93.4041 163.386 94.0443 163.386 94.8342C163.386 95.6241 162.744 96.2643 161.951 96.2643ZM187.766 101.985H164.82C164.028 101.985 163.386 101.345 163.386 100.555C163.386 99.7652 164.028 99.1246 164.82 99.1246H187.766C188.557 99.1246 189.2 99.7652 189.2 100.555C189.2 101.345 188.557 101.985 187.766 101.985ZM167.688 93.4041H171.99C172.782 93.4041 173.425 94.0443 173.425 94.8342C173.425 95.6241 172.782 96.2643 171.99 96.2643H167.688C166.896 96.2643 166.254 95.6241 166.254 94.8342C166.254 94.0443 166.896 93.4041 167.688 93.4041ZM166.254 89.1136C166.254 88.3237 166.896 87.6835 167.688 87.6835H171.99C172.782 87.6835 173.425 88.3237 173.425 89.1136C173.425 89.9035 172.782 90.5438 171.99 90.5438H167.688C166.896 90.5438 166.254 89.9035 166.254 89.1136ZM187.766 96.2643H177.727C176.935 96.2643 176.293 95.6241 176.293 94.8342C176.293 94.0443 176.935 93.4041 177.727 93.4041H187.766C188.557 93.4041 189.2 94.0443 189.2 94.8342C189.2 95.6241 188.557 96.2643 187.766 96.2643ZM187.766 90.5438H177.727C176.935 90.5438 176.293 89.9031 176.293 89.1136C176.293 88.3237 176.935 87.6831 177.727 87.6831H187.766C188.557 87.6831 189.2 88.3237 189.2 89.1136C189.2 89.9031 188.557 90.5438 187.766 90.5438ZM187.766 84.8232H164.82C164.028 84.8232 163.386 84.1826 163.386 83.3926C163.386 82.6031 164.028 81.9625 164.82 81.9625H187.766C188.557 81.9625 189.2 82.6031 189.2 83.3926C189.2 84.1826 188.557 84.8232 187.766 84.8232ZM187.766 79.1022H164.82C164.028 79.1022 163.386 78.462 163.386 77.6721C163.386 76.8821 164.028 76.2419 164.82 76.2419H187.766C188.557 76.2419 189.2 76.8821 189.2 77.6721C189.2 78.462 188.557 79.1022 187.766 79.1022ZM187.766 73.3816H177.727C176.935 73.3816 176.293 72.741 176.293 71.9511C176.293 71.1615 176.935 70.5209 177.727 70.5209H187.766C188.557 70.5209 189.2 71.1615 189.2 71.9511C189.2 72.741 188.557 73.3816 187.766 73.3816ZM187.766 67.6606H177.727C176.935 67.6606 176.293 67.0204 176.293 66.2305C176.293 65.4406 176.935 64.8003 177.727 64.8003H187.766C188.557 64.8003 189.2 65.4406 189.2 66.2305C189.2 67.0204 188.557 67.6606 187.766 67.6606Z" fill="#464655"/>
<path d="M164.82 61.9401H187.765C188.557 61.9401 189.2 61.2999 189.2 60.51C189.2 59.7201 188.557 59.0798 187.765 59.0798H164.82C164.028 59.0798 163.386 59.7201 163.386 60.51C163.386 61.2999 164.028 61.9401 164.82 61.9401Z" fill="#FFE169"/>
<path d="M171.99 64.8006H167.688C166.896 64.8006 166.254 65.4412 166.254 66.2308C166.254 67.0207 166.896 67.6613 167.688 67.6613H171.99C172.782 67.6613 173.424 67.0207 173.424 66.2308C173.424 65.4408 172.782 64.8006 171.99 64.8006Z" fill="#91E6BE"/>
<path d="M171.99 70.5209H167.688C166.896 70.5209 166.254 71.1615 166.254 71.9514C166.254 72.7409 166.896 73.3815 167.688 73.3815H171.99C172.782 73.3815 173.424 72.7409 173.424 71.9514C173.424 71.1615 172.782 70.5209 171.99 70.5209Z" fill="#91E6BE"/>
<path d="M187.765 76.242H164.82C164.028 76.242 163.386 76.8822 163.386 77.6721C163.386 78.462 164.028 79.1023 164.82 79.1023H187.765C188.557 79.1023 189.2 78.462 189.2 77.6721C189.2 76.8822 188.557 76.242 187.765 76.242Z" fill="#FFE169"/>
<path d="M187.765 81.9626H164.82C164.028 81.9626 163.386 82.6032 163.386 83.3932C163.386 84.1827 164.028 84.8233 164.82 84.8233H187.765C188.557 84.8233 189.2 84.1827 189.2 83.3932C189.2 82.6032 188.557 81.9626 187.765 81.9626Z" fill="white"/>
<path d="M187.765 64.8006H177.727C176.935 64.8006 176.292 65.4412 176.292 66.2308C176.292 67.0207 176.935 67.6613 177.727 67.6613H187.765C188.557 67.6613 189.2 67.0207 189.2 66.2308C189.2 65.4408 188.557 64.8006 187.765 64.8006Z" fill="white"/>
<path d="M187.765 70.5209H177.727C176.935 70.5209 176.292 71.1615 176.292 71.9514C176.292 72.7409 176.935 73.3815 177.727 73.3815H187.765C188.557 73.3815 189.2 72.7409 189.2 71.9514C189.2 71.1615 188.557 70.5209 187.765 70.5209Z" fill="white"/>
<path d="M187.765 87.6837H177.727C176.935 87.6837 176.292 88.324 176.292 89.1139C176.292 89.9038 176.935 90.544 177.727 90.544H187.765C188.557 90.544 189.2 89.9038 189.2 89.1139C189.2 88.324 188.557 87.6837 187.765 87.6837Z" fill="white"/>
<path d="M187.765 93.4041H177.727C176.935 93.4041 176.292 94.0443 176.292 94.8342C176.292 95.6241 176.935 96.2647 177.727 96.2647H187.765C188.557 96.2647 189.2 95.6241 189.2 94.8342C189.2 94.0443 188.557 93.4041 187.765 93.4041Z" fill="white"/>
<path d="M167.688 90.544H171.99C172.782 90.544 173.424 89.9034 173.424 89.1138C173.424 88.3239 172.782 87.6833 171.99 87.6833H167.688C166.896 87.6833 166.254 88.3239 166.254 89.1138C166.254 89.9034 166.896 90.544 167.688 90.544Z" fill="#91E6BE"/>
<path d="M167.688 96.2647H171.99C172.782 96.2647 173.424 95.6241 173.424 94.8342C173.424 94.0447 172.782 93.4041 171.99 93.4041H167.688C166.896 93.4041 166.254 94.0447 166.254 94.8342C166.254 95.6241 166.896 96.2647 167.688 96.2647Z" fill="#91E6BE"/>
<path d="M187.765 99.1251H164.82C164.028 99.1251 163.386 99.7653 163.386 100.555C163.386 101.345 164.028 101.985 164.82 101.985H187.765C188.557 101.985 189.2 101.345 189.2 100.555C189.2 99.7653 188.557 99.1251 187.765 99.1251Z" fill="#FFE169"/>
<path d="M157.649 61.9401H159.083C159.875 61.9401 160.517 61.2999 160.517 60.51C160.517 59.7201 159.875 59.0798 159.083 59.0798H157.649C156.857 59.0798 156.215 59.7201 156.215 60.51C156.215 61.2999 156.857 61.9401 157.649 61.9401Z" fill="#FF6469"/>
<path d="M161.951 64.8006H160.517C159.725 64.8006 159.083 65.4412 159.083 66.2308C159.083 67.0207 159.725 67.6613 160.517 67.6613H161.951C162.744 67.6613 163.386 67.0207 163.386 66.2308C163.386 65.4408 162.744 64.8006 161.951 64.8006Z" fill="#FF6469"/>
<path d="M161.951 70.5209H160.517C159.725 70.5209 159.083 71.1615 159.083 71.9514C159.083 72.7409 159.725 73.3815 160.517 73.3815H161.951C162.744 73.3815 163.386 72.7409 163.386 71.9514C163.386 71.1615 162.744 70.5209 161.951 70.5209Z" fill="#FF6469"/>
<path d="M157.649 79.1023H159.083C159.875 79.1023 160.517 78.462 160.517 77.6721C160.517 76.8822 159.875 76.242 159.083 76.242H157.649C156.857 76.242 156.215 76.8822 156.215 77.6721C156.215 78.462 156.857 79.1023 157.649 79.1023Z" fill="#FF6469"/>
<path d="M157.649 84.8233H159.083C159.875 84.8233 160.517 84.1827 160.517 83.3928C160.517 82.6032 159.875 81.9626 159.083 81.9626H157.649C156.857 81.9626 156.215 82.6032 156.215 83.3928C156.215 84.1827 156.857 84.8233 157.649 84.8233Z" fill="#FF6469"/>
<path d="M160.517 90.544H161.951C162.744 90.544 163.386 89.9034 163.386 89.1138C163.386 88.3239 162.744 87.6833 161.951 87.6833H160.517C159.725 87.6833 159.083 88.3239 159.083 89.1138C159.083 89.9034 159.725 90.544 160.517 90.544Z" fill="#FF6469"/>
<path d="M161.951 93.4041H160.517C159.725 93.4041 159.083 94.0443 159.083 94.8342C159.083 95.6241 159.725 96.2647 160.517 96.2647H161.951C162.744 96.2647 163.386 95.6241 163.386 94.8342C163.386 94.0443 162.744 93.4041 161.951 93.4041Z" fill="#FF6469"/>
<path d="M159.083 99.1251H157.649C156.857 99.1251 156.215 99.7653 156.215 100.555C156.215 101.345 156.857 101.985 157.649 101.985H159.083C159.875 101.985 160.517 101.345 160.517 100.555C160.517 99.7653 159.875 99.1251 159.083 99.1251Z" fill="#FF6469"/>
</g>
<defs>
<clipPath id="clip0_1_91">
<path d="M0 20C0 8.9543 8.9543 0 20 0H225C236.046 0 245 8.95431 245 20V161H0V20Z" fill="white"/>
</clipPath>
</defs>
</svg>
